<mxfile host="app.diagrams.net" agent="Mozilla/5.0 (Windows NT 10.0; Win64; x64) AppleWebKit/537.36 (KHTML, like Gecko) Chrome/140.0.0.0 Safari/537.36" version="28.2.1">
  <diagram name="Page-1" id="NBl3DW-tStlRGd-z1Xpp">
    <mxGraphModel dx="2169" dy="2489" grid="1" gridSize="10" guides="1" tooltips="1" connect="1" arrows="1" fold="1" page="1" pageScale="1" pageWidth="827" pageHeight="1169" math="0" shadow="0">
      <root>
        <mxCell id="0" />
        <mxCell id="1" parent="0" />
        <mxCell id="XOH5qWPJD92o-700pRAV-13" value="" style="edgeStyle=orthogonalEdgeStyle;rounded=0;orthogonalLoop=1;jettySize=auto;html=1;fontSize=17;labelBackgroundColor=none;strokeColor=#788AA3;fontColor=default;" edge="1" parent="1" source="XOH5qWPJD92o-700pRAV-1" target="XOH5qWPJD92o-700pRAV-3">
          <mxGeometry relative="1" as="geometry" />
        </mxCell>
        <mxCell id="XOH5qWPJD92o-700pRAV-1" value="Start" style="ellipse;whiteSpace=wrap;html=1;fontSize=17;labelBackgroundColor=none;fillColor=#B2C9AB;strokeColor=#788AA3;fontColor=#46495D;" vertex="1" parent="1">
          <mxGeometry x="410" y="-20" width="120" height="80" as="geometry" />
        </mxCell>
        <mxCell id="XOH5qWPJD92o-700pRAV-2" value="End" style="ellipse;whiteSpace=wrap;html=1;fontSize=17;labelBackgroundColor=none;fillColor=#B2C9AB;strokeColor=#788AA3;fontColor=#46495D;" vertex="1" parent="1">
          <mxGeometry x="410" y="1520" width="120" height="80" as="geometry" />
        </mxCell>
        <mxCell id="XOH5qWPJD92o-700pRAV-14" value="" style="edgeStyle=orthogonalEdgeStyle;rounded=0;orthogonalLoop=1;jettySize=auto;html=1;fontSize=17;labelBackgroundColor=none;strokeColor=#788AA3;fontColor=default;" edge="1" parent="1" source="XOH5qWPJD92o-700pRAV-3" target="XOH5qWPJD92o-700pRAV-4">
          <mxGeometry relative="1" as="geometry" />
        </mxCell>
        <mxCell id="XOH5qWPJD92o-700pRAV-3" value="Show Menu" style="rounded=1;whiteSpace=wrap;html=1;fontSize=17;labelBackgroundColor=none;fillColor=#B2C9AB;strokeColor=#788AA3;fontColor=#46495D;" vertex="1" parent="1">
          <mxGeometry x="407.5" y="130" width="125" height="60" as="geometry" />
        </mxCell>
        <mxCell id="XOH5qWPJD92o-700pRAV-23" value="" style="edgeStyle=orthogonalEdgeStyle;rounded=0;orthogonalLoop=1;jettySize=auto;html=1;fontSize=17;labelBackgroundColor=none;strokeColor=#788AA3;fontColor=default;" edge="1" parent="1" source="XOH5qWPJD92o-700pRAV-4" target="XOH5qWPJD92o-700pRAV-6">
          <mxGeometry relative="1" as="geometry" />
        </mxCell>
        <mxCell id="XOH5qWPJD92o-700pRAV-4" value="Add&amp;nbsp;&lt;div&gt;Student&lt;/div&gt;" style="shape=parallelogram;perimeter=parallelogramPerimeter;whiteSpace=wrap;html=1;fixedSize=1;rounded=1;fontSize=17;labelBackgroundColor=none;fillColor=#B2C9AB;strokeColor=#788AA3;fontColor=#46495D;" vertex="1" parent="1">
          <mxGeometry x="398.75" y="270" width="142.5" height="60" as="geometry" />
        </mxCell>
        <mxCell id="XOH5qWPJD92o-700pRAV-6" value="Add&amp;nbsp;&lt;div&gt;To&amp;nbsp;&lt;div&gt;Set&lt;/div&gt;&lt;/div&gt;" style="rhombus;whiteSpace=wrap;html=1;rounded=1;fontSize=17;labelBackgroundColor=none;fillColor=#B2C9AB;strokeColor=#788AA3;fontColor=#46495D;" vertex="1" parent="1">
          <mxGeometry x="620" y="245" width="110" height="110" as="geometry" />
        </mxCell>
        <mxCell id="XOH5qWPJD92o-700pRAV-16" value="" style="edgeStyle=orthogonalEdgeStyle;rounded=0;orthogonalLoop=1;jettySize=auto;html=1;fontSize=17;labelBackgroundColor=none;strokeColor=#788AA3;fontColor=default;" edge="1" parent="1" source="XOH5qWPJD92o-700pRAV-7" target="XOH5qWPJD92o-700pRAV-11">
          <mxGeometry relative="1" as="geometry" />
        </mxCell>
        <mxCell id="XOH5qWPJD92o-700pRAV-30" value="" style="edgeStyle=orthogonalEdgeStyle;rounded=0;orthogonalLoop=1;jettySize=auto;html=1;fontSize=17;labelBackgroundColor=none;strokeColor=#788AA3;fontColor=default;" edge="1" parent="1" source="XOH5qWPJD92o-700pRAV-7" target="XOH5qWPJD92o-700pRAV-8">
          <mxGeometry relative="1" as="geometry" />
        </mxCell>
        <mxCell id="XOH5qWPJD92o-700pRAV-7" value="Remove&amp;nbsp;&lt;div&gt;Student&lt;/div&gt;" style="shape=parallelogram;perimeter=parallelogramPerimeter;whiteSpace=wrap;html=1;fixedSize=1;rounded=1;fontSize=17;labelBackgroundColor=none;fillColor=#B2C9AB;strokeColor=#788AA3;fontColor=#46495D;" vertex="1" parent="1">
          <mxGeometry x="390" y="460" width="142.5" height="60" as="geometry" />
        </mxCell>
        <mxCell id="XOH5qWPJD92o-700pRAV-8" value="Remove&lt;div&gt;From&lt;/div&gt;&lt;div&gt;Set&lt;/div&gt;" style="rhombus;whiteSpace=wrap;html=1;rounded=1;fontSize=17;labelBackgroundColor=none;fillColor=#B2C9AB;strokeColor=#788AA3;fontColor=#46495D;" vertex="1" parent="1">
          <mxGeometry x="180" y="435" width="110" height="110" as="geometry" />
        </mxCell>
        <mxCell id="XOH5qWPJD92o-700pRAV-31" value="" style="edgeStyle=orthogonalEdgeStyle;rounded=0;orthogonalLoop=1;jettySize=auto;html=1;fontSize=17;labelBackgroundColor=none;strokeColor=#788AA3;fontColor=default;" edge="1" parent="1" source="XOH5qWPJD92o-700pRAV-9" target="XOH5qWPJD92o-700pRAV-26">
          <mxGeometry relative="1" as="geometry" />
        </mxCell>
        <mxCell id="XOH5qWPJD92o-700pRAV-33" style="edgeStyle=orthogonalEdgeStyle;rounded=0;orthogonalLoop=1;jettySize=auto;html=1;entryX=0.5;entryY=0;entryDx=0;entryDy=0;fontSize=17;labelBackgroundColor=none;strokeColor=#788AA3;fontColor=default;" edge="1" parent="1" source="XOH5qWPJD92o-700pRAV-9" target="XOH5qWPJD92o-700pRAV-28">
          <mxGeometry relative="1" as="geometry" />
        </mxCell>
        <mxCell id="XOH5qWPJD92o-700pRAV-9" value="Set Topic" style="shape=parallelogram;perimeter=parallelogramPerimeter;whiteSpace=wrap;html=1;fixedSize=1;rounded=1;fontSize=17;labelBackgroundColor=none;fillColor=#B2C9AB;strokeColor=#788AA3;fontColor=#46495D;" vertex="1" parent="1">
          <mxGeometry x="387.5" y="800" width="142.5" height="60" as="geometry" />
        </mxCell>
        <mxCell id="XOH5qWPJD92o-700pRAV-10" value="Change&lt;div&gt;State&lt;/div&gt;" style="rhombus;whiteSpace=wrap;html=1;rounded=1;fontSize=17;labelBackgroundColor=none;fillColor=#B2C9AB;strokeColor=#788AA3;fontColor=#46495D;" vertex="1" parent="1">
          <mxGeometry x="620" y="605" width="110" height="110" as="geometry" />
        </mxCell>
        <mxCell id="XOH5qWPJD92o-700pRAV-25" value="" style="edgeStyle=orthogonalEdgeStyle;rounded=0;orthogonalLoop=1;jettySize=auto;html=1;fontSize=17;labelBackgroundColor=none;strokeColor=#788AA3;fontColor=default;" edge="1" parent="1" source="XOH5qWPJD92o-700pRAV-11" target="XOH5qWPJD92o-700pRAV-10">
          <mxGeometry relative="1" as="geometry" />
        </mxCell>
        <mxCell id="XOH5qWPJD92o-700pRAV-11" value="Toggle&amp;nbsp;&lt;div&gt;Projector&lt;/div&gt;" style="shape=parallelogram;perimeter=parallelogramPerimeter;whiteSpace=wrap;html=1;fixedSize=1;rounded=1;fontSize=17;labelBackgroundColor=none;fillColor=#B2C9AB;strokeColor=#788AA3;fontColor=#46495D;" vertex="1" parent="1">
          <mxGeometry x="390" y="630" width="142.5" height="60" as="geometry" />
        </mxCell>
        <mxCell id="XOH5qWPJD92o-700pRAV-15" style="edgeStyle=orthogonalEdgeStyle;rounded=0;orthogonalLoop=1;jettySize=auto;html=1;entryX=0.561;entryY=0;entryDx=0;entryDy=0;entryPerimeter=0;fontSize=17;labelBackgroundColor=none;strokeColor=#788AA3;fontColor=default;" edge="1" parent="1" source="XOH5qWPJD92o-700pRAV-4" target="XOH5qWPJD92o-700pRAV-7">
          <mxGeometry relative="1" as="geometry" />
        </mxCell>
        <mxCell id="XOH5qWPJD92o-700pRAV-22" style="edgeStyle=orthogonalEdgeStyle;rounded=0;orthogonalLoop=1;jettySize=auto;html=1;entryX=0.514;entryY=0.007;entryDx=0;entryDy=0;entryPerimeter=0;fontSize=17;labelBackgroundColor=none;strokeColor=#788AA3;fontColor=default;" edge="1" parent="1" source="XOH5qWPJD92o-700pRAV-11" target="XOH5qWPJD92o-700pRAV-9">
          <mxGeometry relative="1" as="geometry" />
        </mxCell>
        <mxCell id="XOH5qWPJD92o-700pRAV-26" value="Update&lt;div&gt;dict&lt;/div&gt;" style="rhombus;whiteSpace=wrap;html=1;rounded=1;fontSize=17;labelBackgroundColor=none;fillColor=#B2C9AB;strokeColor=#788AA3;fontColor=#46495D;" vertex="1" parent="1">
          <mxGeometry x="180" y="775" width="110" height="110" as="geometry" />
        </mxCell>
        <mxCell id="XOH5qWPJD92o-700pRAV-34" value="" style="edgeStyle=orthogonalEdgeStyle;rounded=0;orthogonalLoop=1;jettySize=auto;html=1;fontSize=17;labelBackgroundColor=none;strokeColor=#788AA3;fontColor=default;" edge="1" parent="1" source="XOH5qWPJD92o-700pRAV-28" target="XOH5qWPJD92o-700pRAV-29">
          <mxGeometry relative="1" as="geometry" />
        </mxCell>
        <mxCell id="XOH5qWPJD92o-700pRAV-41" style="edgeStyle=orthogonalEdgeStyle;rounded=0;orthogonalLoop=1;jettySize=auto;html=1;entryX=0.5;entryY=0;entryDx=0;entryDy=0;fontSize=17;labelBackgroundColor=none;strokeColor=#788AA3;fontColor=default;" edge="1" parent="1" source="XOH5qWPJD92o-700pRAV-28" target="XOH5qWPJD92o-700pRAV-35">
          <mxGeometry relative="1" as="geometry" />
        </mxCell>
        <mxCell id="XOH5qWPJD92o-700pRAV-28" value="Add Temp" style="shape=parallelogram;perimeter=parallelogramPerimeter;whiteSpace=wrap;html=1;fixedSize=1;rounded=1;fontSize=17;labelBackgroundColor=none;fillColor=#B2C9AB;strokeColor=#788AA3;fontColor=#46495D;" vertex="1" parent="1">
          <mxGeometry x="387.5" y="980" width="142.5" height="60" as="geometry" />
        </mxCell>
        <mxCell id="XOH5qWPJD92o-700pRAV-29" value="Append&amp;nbsp;&lt;div&gt;To&amp;nbsp;&lt;/div&gt;&lt;div&gt;List&lt;/div&gt;" style="rhombus;whiteSpace=wrap;html=1;rounded=1;fontSize=17;labelBackgroundColor=none;fillColor=#B2C9AB;strokeColor=#788AA3;fontColor=#46495D;" vertex="1" parent="1">
          <mxGeometry x="620" y="955" width="110" height="110" as="geometry" />
        </mxCell>
        <mxCell id="XOH5qWPJD92o-700pRAV-37" value="" style="edgeStyle=orthogonalEdgeStyle;rounded=0;orthogonalLoop=1;jettySize=auto;html=1;fontSize=17;labelBackgroundColor=none;strokeColor=#788AA3;fontColor=default;" edge="1" parent="1" source="XOH5qWPJD92o-700pRAV-35" target="XOH5qWPJD92o-700pRAV-36">
          <mxGeometry relative="1" as="geometry" />
        </mxCell>
        <mxCell id="XOH5qWPJD92o-700pRAV-35" value="Report" style="shape=parallelogram;perimeter=parallelogramPerimeter;whiteSpace=wrap;html=1;fixedSize=1;rounded=1;fontSize=17;labelBackgroundColor=none;fillColor=#B2C9AB;strokeColor=#788AA3;fontColor=#46495D;" vertex="1" parent="1">
          <mxGeometry x="387.5" y="1169" width="142.5" height="60" as="geometry" />
        </mxCell>
        <mxCell id="XOH5qWPJD92o-700pRAV-36" value="Show state&lt;div&gt;&amp;nbsp;+&lt;/div&gt;&lt;div&gt;alerts&lt;/div&gt;" style="rhombus;whiteSpace=wrap;html=1;rounded=1;fontSize=17;labelBackgroundColor=none;fillColor=#B2C9AB;strokeColor=#788AA3;fontColor=#46495D;" vertex="1" parent="1">
          <mxGeometry x="180" y="1144" width="110" height="110" as="geometry" />
        </mxCell>
        <mxCell id="XOH5qWPJD92o-700pRAV-38" value="Exit Menu" style="rounded=1;whiteSpace=wrap;html=1;fontSize=17;labelBackgroundColor=none;fillColor=#B2C9AB;strokeColor=#788AA3;fontColor=#46495D;" vertex="1" parent="1">
          <mxGeometry x="407.5" y="1350" width="125" height="60" as="geometry" />
        </mxCell>
        <mxCell id="XOH5qWPJD92o-700pRAV-42" style="edgeStyle=orthogonalEdgeStyle;rounded=0;orthogonalLoop=1;jettySize=auto;html=1;entryX=0.412;entryY=0.007;entryDx=0;entryDy=0;entryPerimeter=0;fontSize=17;labelBackgroundColor=none;strokeColor=#788AA3;fontColor=default;" edge="1" parent="1" source="XOH5qWPJD92o-700pRAV-35" target="XOH5qWPJD92o-700pRAV-38">
          <mxGeometry relative="1" as="geometry" />
        </mxCell>
        <mxCell id="XOH5qWPJD92o-700pRAV-44" style="edgeStyle=orthogonalEdgeStyle;rounded=0;orthogonalLoop=1;jettySize=auto;html=1;entryX=0.504;entryY=-0.052;entryDx=0;entryDy=0;entryPerimeter=0;fontSize=17;labelBackgroundColor=none;strokeColor=#788AA3;fontColor=default;" edge="1" parent="1" source="XOH5qWPJD92o-700pRAV-38" target="XOH5qWPJD92o-700pRAV-2">
          <mxGeometry relative="1" as="geometry" />
        </mxCell>
      </root>
    </mxGraphModel>
  </diagram>
</mxfile>
